<?xml version="1.0" standalone="no"?>
<!DOCTYPE svg PUBLIC "-//W3C//DTD SVG 20010904//EN"
 "http://www.w3.org/TR/2001/REC-SVG-20010904/DTD/svg10.dtd">
<svg version="1.0" xmlns="http://www.w3.org/2000/svg"
 width="150.000000pt" height="150.000000pt" viewBox="0 0 150.000000 150.000000"
 preserveAspectRatio="xMidYMid meet">

<g transform="translate(0.000000,150.000000) scale(0.100000,-0.100000)"
fill="#000000" stroke="none">
<path d="M0 750 l0 -750 750 0 750 0 0 750 0 750 -750 0 -750 0 0 -750z m875
616 c97 -41 60 -131 -65 -155 -94 -18 -218 -81 -290 -147 -68 -64 -128 -173
-156 -284 -22 -87 -15 -227 14 -293 68 -153 245 -237 439 -208 184 27 315 135
342 283 29 161 -59 311 -207 354 -105 31 -238 -8 -310 -91 -46 -52 -68 -135
-54 -204 22 -102 85 -155 187 -155 135 0 239 120 158 184 -30 23 -62 21 -125
-11 -45 -23 -62 -24 -82 -3 -22 21 -20 72 4 112 70 115 275 102 331 -22 72
-159 -74 -353 -289 -382 -117 -15 -231 56 -295 185 -29 59 -32 74 -32 156 0
78 4 98 28 147 60 122 194 217 338 239 194 30 397 -75 460 -239 27 -71 37
-211 19 -291 -55 -255 -309 -437 -582 -417 -250 18 -432 140 -489 328 -32 103
-24 261 19 375 65 177 177 305 383 439 126 83 181 113 207 114 7 0 28 -6 47
-14z"/>
</g>
</svg>
